<svg width="499" height="71" viewBox="0 0 499 71" fill="none" xmlns="http://www.w3.org/2000/svg">
<path d="M473.922 70.6599C469.314 70.6599 465.089 69.5719 461.249 67.3957C457.409 65.2196 454.369 62.2754 452.129 58.5632C449.952 54.787 448.864 50.6268 448.864 46.0825C448.864 41.4743 449.952 37.314 452.129 33.6018C454.369 29.8896 457.409 26.9454 461.249 24.7693C465.089 22.5932 469.314 21.5051 473.922 21.5051C478.594 21.5051 482.818 22.5932 486.595 24.7693C490.435 26.9454 493.443 29.8896 495.619 33.6018C497.859 37.314 498.979 41.4743 498.979 46.0825C498.979 50.6268 497.859 54.787 495.619 58.5632C493.443 62.2754 490.435 65.2196 486.595 67.3957C482.818 69.5719 478.594 70.6599 473.922 70.6599ZM473.922 59.4273C476.354 59.4273 478.562 58.8512 480.546 57.6992C482.53 56.4831 484.098 54.883 485.25 52.8989C486.467 50.8508 487.075 48.5787 487.075 46.0825C487.075 43.5224 486.467 41.2502 485.25 39.2661C484.098 37.282 482.53 35.7139 480.546 34.5619C478.562 33.3458 476.354 32.7378 473.922 32.7378C471.49 32.7378 469.282 33.3458 467.297 34.5619C465.313 35.7139 463.713 37.314 462.497 39.3621C461.345 41.3462 460.769 43.5864 460.769 46.0825C460.769 48.5147 461.345 50.7548 462.497 52.8029C463.713 54.851 465.313 56.4831 467.297 57.6992C469.282 58.8512 471.49 59.4273 473.922 59.4273Z" fill="black"/>
<path d="M431.78 69.1239V0H443.493V69.1239H431.78ZM416.035 70.66C411.683 70.66 407.715 69.5719 404.13 67.3958C400.546 65.2197 397.698 62.2755 395.586 58.5633C393.538 54.7871 392.514 50.6269 392.514 46.0826C392.514 41.4744 393.538 37.3141 395.586 33.6019C397.698 29.8897 400.546 26.9455 404.13 24.7694C407.715 22.5933 411.683 21.5052 416.035 21.5052C420.323 21.5052 424.196 22.5933 427.652 24.7694C431.108 26.9455 433.86 29.8897 435.908 33.6019C437.956 37.3141 438.98 41.4744 438.98 46.0826C438.98 50.6269 437.956 54.7871 435.908 58.5633C433.86 62.2755 431.108 65.2197 427.652 67.3958C424.196 69.5719 420.323 70.66 416.035 70.66ZM417.859 59.3314C420.355 59.3314 422.595 58.7553 424.58 57.6033C426.628 56.3872 428.228 54.7871 429.38 52.803C430.596 50.8189 431.204 48.5788 431.204 46.0826C431.204 43.5865 430.596 41.3463 429.38 39.3622C428.228 37.3141 426.628 35.714 424.58 34.562C422.595 33.4099 420.355 32.8339 417.859 32.8339C415.363 32.8339 413.091 33.4419 411.043 34.658C409.059 35.81 407.459 37.3781 406.242 39.3622C405.09 41.3463 404.514 43.5865 404.514 46.0826C404.514 48.5147 405.09 50.7549 406.242 52.803C407.459 54.7871 409.059 56.3872 411.043 57.6033C413.091 58.7553 415.363 59.3314 417.859 59.3314Z" fill="black"/>
<path d="M365.158 70.6599C360.55 70.6599 356.326 69.5719 352.485 67.3957C348.645 65.2196 345.605 62.2754 343.365 58.5632C341.189 54.787 340.101 50.6268 340.101 46.0825C340.101 41.4743 341.189 37.314 343.365 33.6018C345.605 29.8896 348.645 26.9454 352.485 24.7693C356.326 22.5932 360.55 21.5051 365.158 21.5051C369.83 21.5051 374.055 22.5932 377.831 24.7693C381.671 26.9454 384.679 29.8896 386.855 33.6018C389.096 37.314 390.216 41.4743 390.216 46.0825C390.216 50.6268 389.096 54.787 386.855 58.5632C384.679 62.2754 381.671 65.2196 377.831 67.3957C374.055 69.5719 369.83 70.6599 365.158 70.6599ZM365.158 59.4273C367.59 59.4273 369.798 58.8512 371.783 57.6992C373.767 56.4831 375.335 54.883 376.487 52.8989C377.703 50.8508 378.311 48.5787 378.311 46.0825C378.311 43.5224 377.703 41.2502 376.487 39.2661C375.335 37.282 373.767 35.7139 371.783 34.5619C369.798 33.3458 367.59 32.7378 365.158 32.7378C362.726 32.7378 360.518 33.3458 358.534 34.5619C356.55 35.7139 354.95 37.314 353.734 39.3621C352.581 41.3462 352.005 43.5864 352.005 46.0825C352.005 48.5147 352.581 50.7548 353.734 52.8029C354.95 54.851 356.55 56.4831 358.534 57.6992C360.518 58.8512 362.726 59.4273 365.158 59.4273Z" fill="black"/>
<path d="M287.016 69.1239V0H298.921V33.2179L296.713 30.7217C298.505 27.9056 300.841 25.6655 303.721 24.0014C306.666 22.3373 309.834 21.5052 313.226 21.5052C317.322 21.5052 320.97 22.5613 324.171 24.6734C327.435 26.7215 330.027 29.4737 331.947 32.9299C333.867 36.3861 334.827 40.2903 334.827 44.6425V69.1239H322.731V44.6425C322.731 42.4024 322.186 40.3863 321.098 38.5942C320.01 36.8021 318.57 35.394 316.778 34.3699C314.986 33.2819 313.002 32.7379 310.826 32.7379C308.65 32.7379 306.634 33.2819 304.777 34.3699C302.985 35.458 301.545 36.9621 300.457 38.8822C299.433 40.7383 298.921 42.8184 298.921 45.1226V69.1239H287.016Z" fill="black"/>
<path d="M219.348 70.6599C214.804 70.6599 210.644 69.5719 206.868 67.3957C203.156 65.2196 200.211 62.2754 198.035 58.5632C195.859 54.787 194.771 50.6268 194.771 46.0825C194.771 41.4743 195.859 37.314 198.035 33.6018C200.211 29.8896 203.156 26.9454 206.868 24.7693C210.644 22.5932 214.804 21.5051 219.348 21.5051C223.957 21.5051 228.117 22.5932 231.829 24.7693C235.541 26.9454 238.486 29.8896 240.662 33.6018C242.838 37.314 243.926 41.4743 243.926 46.0825C243.926 50.6268 242.838 54.787 240.662 58.5632C238.486 62.2754 235.541 65.2196 231.829 67.3957C228.117 69.5719 223.957 70.6599 219.348 70.6599ZM219.348 64.6116C222.677 64.6116 225.685 63.7795 228.373 62.1154C231.125 60.4513 233.301 58.2432 234.901 55.491C236.501 52.6749 237.301 49.5387 237.301 46.0825C237.301 42.5623 236.501 39.4261 234.901 36.674C233.301 33.8578 231.125 31.6497 228.373 30.0496C225.685 28.3855 222.677 27.5535 219.348 27.5535C216.02 27.5535 212.98 28.3855 210.228 30.0496C207.54 31.7137 205.364 33.9538 203.7 36.77C202.099 39.5221 201.299 42.6263 201.299 46.0825C201.299 49.5387 202.099 52.6749 203.7 55.491C205.364 58.2432 207.54 60.4513 210.228 62.1154C212.98 63.7795 216.02 64.6116 219.348 64.6116Z" fill="black"/>
<path d="M182.377 69.1239V23.0413H188.905V69.1239H182.377ZM185.641 14.1128C184.297 14.1128 183.145 13.6328 182.185 12.6727C181.225 11.6486 180.744 10.4966 180.744 9.2165C180.744 7.80842 181.225 6.62435 182.185 5.6643C183.145 4.70424 184.297 4.22421 185.641 4.22421C187.049 4.22421 188.201 4.70424 189.097 5.6643C190.057 6.62435 190.537 7.80842 190.537 9.2165C190.537 10.4966 190.057 11.6486 189.097 12.6727C188.201 13.6328 187.049 14.1128 185.641 14.1128Z" fill="black"/>
<path d="M166.911 69.1239V0H173.439V69.1239H166.911ZM147.71 70.66C143.165 70.66 139.037 69.5719 135.325 67.3958C131.613 65.2197 128.669 62.2755 126.492 58.5633C124.316 54.7871 123.228 50.6269 123.228 46.0826C123.228 41.4744 124.316 37.3141 126.492 33.6019C128.669 29.8897 131.613 26.9455 135.325 24.7694C139.037 22.5933 143.165 21.5052 147.71 21.5052C152.062 21.5052 155.998 22.5933 159.518 24.7694C163.038 26.9455 165.855 29.8897 167.967 33.6019C170.079 37.3141 171.135 41.4744 171.135 46.0826C171.135 50.6269 170.079 54.7871 167.967 58.5633C165.855 62.2755 163.038 65.2197 159.518 67.3958C155.998 69.5719 152.062 70.66 147.71 70.66ZM148.382 64.4196C151.902 64.4196 155.038 63.6196 157.79 62.0195C160.542 60.4194 162.718 58.2433 164.319 55.4911C165.983 52.675 166.815 49.5388 166.815 46.0826C166.815 42.6264 165.983 39.5222 164.319 36.7701C162.718 33.9539 160.542 31.7458 157.79 30.1457C155.038 28.4816 151.902 27.6496 148.382 27.6496C144.925 27.6496 141.821 28.4816 139.069 30.1457C136.317 31.7458 134.109 33.9539 132.445 36.7701C130.781 39.5222 129.949 42.6264 129.949 46.0826C129.949 49.5388 130.781 52.675 132.445 55.4911C134.109 58.2433 136.317 60.4194 139.069 62.0195C141.821 63.6196 144.925 64.4196 148.382 64.4196Z" fill="black"/>
<path d="M117.208 23.0414V69.124H110.2V57.8913L111.16 59.0434C109.496 62.5636 107.064 65.3797 103.864 67.4919C100.727 69.604 97.2072 70.66 93.303 70.66C89.4628 70.66 86.0066 69.732 82.9344 67.8759C79.8623 65.9558 77.4301 63.3956 75.638 60.1955C73.8459 56.9313 72.9499 53.3151 72.9499 49.3468V23.0414H79.9583V49.3468C79.9583 52.163 80.6303 54.7231 81.9744 57.0273C83.3185 59.3314 85.1426 61.1555 87.4467 62.4996C89.7508 63.8437 92.279 64.5157 95.0311 64.5157C97.9113 64.5157 100.471 63.8117 102.712 62.4036C105.016 60.9315 106.84 58.9794 108.184 56.5472C109.528 54.1151 110.2 51.395 110.2 48.3868V23.0414H117.208Z" fill="black"/>
<path d="M61.2747 69.1238C58.2666 69.1238 55.5144 68.3878 53.0183 66.9157C50.5861 65.3796 48.634 63.3315 47.1619 60.7713C45.7539 58.1472 45.0498 55.267 45.0498 52.1309V6.81628H52.0582V52.1309C52.0582 54.051 52.4742 55.8111 53.3063 57.4112C54.2023 59.0112 55.3864 60.2913 56.8585 61.2514C58.3306 62.1474 59.9627 62.5954 61.7548 62.5954H68.5712V69.1238H61.7548H61.2747ZM38.3294 28.4175V23.0412H67.0351V28.4175H38.3294Z" fill="black"/>
<path d="M19.7771 70.6599C16.1289 70.6599 12.8007 69.9239 9.79255 68.4518C6.78438 66.9157 4.38425 64.8676 2.59215 62.3074C0.864049 59.7473 0 56.8991 0 53.763H6.91239C6.91239 55.6831 7.48842 57.4752 8.64049 59.1393C9.85656 60.7393 11.4566 62.0194 13.4408 62.9795C15.4249 63.8755 17.665 64.3235 20.1611 64.3235C22.3373 64.3235 24.3214 63.9715 26.1135 63.2675C27.9056 62.4994 29.3137 61.4434 30.3377 60.0993C31.4258 58.7552 31.9698 57.2832 31.9698 55.6831C31.9698 54.019 31.4578 52.7389 30.4337 51.8428C29.4097 50.9468 28.0336 50.2428 26.3055 49.7307C24.5774 49.1547 22.6893 48.6427 20.6412 48.1946C18.6571 47.7466 16.5769 47.2666 14.4008 46.7546C12.2887 46.2425 10.3366 45.5705 8.54448 44.7384C6.75238 43.9064 5.2803 42.7543 4.12823 41.2822C3.04017 39.8102 2.49614 37.8901 2.49614 35.5219C2.49614 32.8978 3.20018 30.5296 4.60826 28.4175C6.08034 26.3054 8.03245 24.6413 10.4646 23.4252C12.8967 22.1452 15.5849 21.5051 18.529 21.5051C21.7932 21.5051 24.7374 22.1452 27.3615 23.4252C30.0497 24.6413 32.1618 26.3054 33.6979 28.4175C35.298 30.5296 36.098 32.8978 36.098 35.5219H29.1857C29.1857 34.0498 28.7056 32.7378 27.7456 31.5857C26.7855 30.4336 25.5054 29.5056 23.9054 28.8015C22.3053 28.0975 20.5132 27.7455 18.529 27.7455C16.8009 27.7455 15.2009 28.0655 13.7288 28.7055C12.3207 29.3456 11.2006 30.1776 10.3686 31.2017C9.53654 32.2257 9.12052 33.3778 9.12052 34.6579C9.12052 35.8739 9.47254 36.866 10.1766 37.634C10.9446 38.3381 11.9367 38.9141 13.1527 39.3621C14.4328 39.8102 15.8729 40.2262 17.473 40.6102C19.0731 40.9302 20.7372 41.2502 22.4653 41.5703C24.3854 42.0183 26.3055 42.5303 28.2256 43.1063C30.1457 43.6824 31.8738 44.4504 33.4099 45.4105C35.01 46.3705 36.258 47.6506 37.1541 49.2507C38.1142 50.8508 38.5942 52.8989 38.5942 55.3951C38.5942 58.2112 37.7621 60.8033 36.098 63.1715C34.4339 65.4756 32.1618 67.2997 29.2817 68.6438C26.4655 69.9879 23.2973 70.6599 19.7771 70.6599Z" fill="black"/>
</svg>
