<svg width="573" height="71" viewBox="0 0 573 71" fill="none" xmlns="http://www.w3.org/2000/svg">
<path d="M536.709 70.66C531.716 70.66 527.044 69.764 522.692 67.9719C518.404 66.1798 514.627 63.6836 511.363 60.4834C508.163 57.2833 505.635 53.571 503.779 49.3468C501.987 45.0586 501.091 40.4503 501.091 35.522C501.091 30.5937 501.987 26.0175 503.779 21.7932C505.635 17.505 508.163 13.7608 511.363 10.5606C514.627 7.36043 518.404 4.86429 522.692 3.07219C527.044 1.28008 531.716 0.384033 536.709 0.384033C541.701 0.384033 546.341 1.28008 550.629 3.07219C554.982 4.86429 558.758 7.36043 561.958 10.5606C565.222 13.7608 567.75 17.505 569.543 21.7932C571.399 26.0175 572.327 30.5937 572.327 35.522C572.327 40.4503 571.399 45.0586 569.543 49.3468C567.75 53.571 565.222 57.2833 561.958 60.4834C558.758 63.6836 554.982 66.1798 550.629 67.9719C546.341 69.764 541.701 70.66 536.709 70.66ZM536.709 59.1394C540.101 59.1394 543.205 58.5633 546.021 57.4113C548.901 56.2592 551.365 54.6271 553.414 52.515C555.526 50.4029 557.158 47.9067 558.31 45.0266C559.462 42.1464 560.038 38.9782 560.038 35.522C560.038 32.0018 559.462 28.8016 558.31 25.9215C557.158 23.0413 555.526 20.5772 553.414 18.5291C551.365 16.4169 548.901 14.7849 546.021 13.6328C543.205 12.4807 540.101 11.9047 536.709 11.9047C533.316 11.9047 530.18 12.4807 527.3 13.6328C524.484 14.7849 522.02 16.4169 519.908 18.5291C517.86 20.5772 516.259 23.0733 515.107 26.0175C513.955 28.8976 513.379 32.0658 513.379 35.522C513.379 38.9782 513.955 42.1464 515.107 45.0266C516.259 47.9067 517.86 50.4029 519.908 52.515C522.02 54.6271 524.484 56.2592 527.3 57.4113C530.18 58.5633 533.316 59.1394 536.709 59.1394Z" fill="black"/>
<path d="M434.521 69.1239V1.9201H446.618V69.1239H440.378V57.6993H464.475C467.483 57.6993 470.299 57.1552 472.924 56.0672C475.548 54.9151 477.852 53.347 479.836 51.3629C481.82 49.3148 483.356 46.9467 484.444 44.2585C485.532 41.5704 486.076 38.6582 486.076 35.522C486.076 32.3858 485.5 29.4737 484.348 26.7855C483.26 24.0974 481.724 21.7612 479.74 19.7771C477.756 17.729 475.452 16.1609 472.828 15.0729C470.203 13.9208 467.355 13.3448 464.283 13.3448H440.378V1.9201H463.707C468.635 1.9201 473.18 2.78415 477.34 4.51225C481.564 6.17635 485.244 8.54448 488.38 11.6167C491.581 14.6888 494.045 18.273 495.773 22.3693C497.501 26.4015 498.365 30.7857 498.365 35.522C498.365 40.1943 497.501 44.5785 495.773 48.6748C494.045 52.771 491.613 56.3552 488.476 59.4274C485.34 62.4355 481.692 64.8037 477.532 66.5318C473.372 68.2599 468.859 69.1239 463.995 69.1239H434.521Z" fill="black"/>
<path d="M392.224 70.66C387.232 70.66 382.56 69.764 378.207 67.9719C373.919 66.1798 370.143 63.6836 366.879 60.4834C363.679 57.2833 361.15 53.571 359.294 49.3468C357.502 45.0586 356.606 40.4503 356.606 35.522C356.606 30.5937 357.502 26.0175 359.294 21.7932C361.15 17.505 363.679 13.7608 366.879 10.5606C370.143 7.36043 373.919 4.86429 378.207 3.07219C382.56 1.28008 387.232 0.384033 392.224 0.384033C397.216 0.384033 401.857 1.28008 406.145 3.07219C410.497 4.86429 414.273 7.36043 417.474 10.5606C420.738 13.7608 423.266 17.505 425.058 21.7932C426.914 26.0175 427.842 30.5937 427.842 35.522C427.842 40.4503 426.914 45.0586 425.058 49.3468C423.266 53.571 420.738 57.2833 417.474 60.4834C414.273 63.6836 410.497 66.1798 406.145 67.9719C401.857 69.764 397.216 70.66 392.224 70.66ZM392.224 59.1394C395.616 59.1394 398.721 58.5633 401.537 57.4113C404.417 56.2592 406.881 54.6271 408.929 52.515C411.041 50.4029 412.673 47.9067 413.825 45.0266C414.978 42.1464 415.554 38.9782 415.554 35.522C415.554 32.0018 414.978 28.8016 413.825 25.9215C412.673 23.0413 411.041 20.5772 408.929 18.5291C406.881 16.4169 404.417 14.7849 401.537 13.6328C398.721 12.4807 395.616 11.9047 392.224 11.9047C388.832 11.9047 385.696 12.4807 382.816 13.6328C380 14.7849 377.535 16.4169 375.423 18.5291C373.375 20.5772 371.775 23.0733 370.623 26.0175C369.471 28.8976 368.895 32.0658 368.895 35.522C368.895 38.9782 369.471 42.1464 370.623 45.0266C371.775 47.9067 373.375 50.4029 375.423 52.515C377.535 54.6271 380 56.2592 382.816 57.4113C385.696 58.5633 388.832 59.1394 392.224 59.1394Z" fill="black"/>
<path d="M335.883 69.1239V1.9201H347.98V69.1239H335.883ZM287.881 69.1239V1.9201H299.977V69.1239H287.881ZM293.257 39.8423V28.6096H343.468V39.8423H293.257Z" fill="black"/>
<path d="M219.348 70.66C214.804 70.66 210.644 69.572 206.868 67.3959C203.156 65.2197 200.211 62.2756 198.035 58.5634C195.859 54.7871 194.771 50.6269 194.771 46.0826C194.771 41.4744 195.859 37.3141 198.035 33.6019C200.211 29.8897 203.156 26.9456 206.868 24.7694C210.644 22.5933 214.804 21.5052 219.348 21.5052C223.957 21.5052 228.117 22.5933 231.829 24.7694C235.541 26.9456 238.486 29.8897 240.662 33.6019C242.838 37.3141 243.926 41.4744 243.926 46.0826C243.926 50.6269 242.838 54.7871 240.662 58.5634C238.486 62.2756 235.541 65.2197 231.829 67.3959C228.117 69.572 223.957 70.66 219.348 70.66ZM219.348 64.6117C222.677 64.6117 225.685 63.7796 228.373 62.1155C231.125 60.4515 233.301 58.2433 234.901 55.4912C236.501 52.675 237.301 49.5388 237.301 46.0826C237.301 42.5624 236.501 39.4263 234.901 36.6741C233.301 33.8579 231.125 31.6498 228.373 30.0497C225.685 28.3856 222.677 27.5536 219.348 27.5536C216.02 27.5536 212.98 28.3856 210.228 30.0497C207.54 31.7138 205.364 33.954 203.7 36.7701C202.099 39.5223 201.299 42.6264 201.299 46.0826C201.299 49.5388 202.099 52.675 203.7 55.4912C205.364 58.2433 207.54 60.4515 210.228 62.1155C212.98 63.7796 216.02 64.6117 219.348 64.6117Z" fill="black"/>
<path d="M182.377 69.1239V23.0413H188.905V69.1239H182.377ZM185.641 14.1128C184.297 14.1128 183.145 13.6328 182.185 12.6727C181.225 11.6487 180.744 10.4966 180.744 9.21653C180.744 7.80845 181.225 6.62438 182.185 5.66433C183.145 4.70427 184.297 4.22424 185.641 4.22424C187.049 4.22424 188.201 4.70427 189.097 5.66433C190.057 6.62438 190.537 7.80845 190.537 9.21653C190.537 10.4966 190.057 11.6487 189.097 12.6727C188.201 13.6328 187.049 14.1128 185.641 14.1128Z" fill="black"/>
<path d="M166.911 69.1239V0H173.439V69.1239H166.911ZM147.71 70.66C143.165 70.66 139.037 69.572 135.325 67.3958C131.613 65.2197 128.669 62.2755 126.492 58.5633C124.316 54.7871 123.228 50.6269 123.228 46.0826C123.228 41.4744 124.316 37.3141 126.492 33.6019C128.669 29.8897 131.613 26.9455 135.325 24.7694C139.037 22.5933 143.165 21.5052 147.71 21.5052C152.062 21.5052 155.998 22.5933 159.518 24.7694C163.038 26.9455 165.855 29.8897 167.967 33.6019C170.079 37.3141 171.135 41.4744 171.135 46.0826C171.135 50.6269 170.079 54.7871 167.967 58.5633C165.855 62.2755 163.038 65.2197 159.518 67.3958C155.998 69.572 152.062 70.66 147.71 70.66ZM148.382 64.4197C151.902 64.4197 155.038 63.6196 157.79 62.0195C160.542 60.4194 162.718 58.2433 164.319 55.4911C165.983 52.675 166.815 49.5388 166.815 46.0826C166.815 42.6264 165.983 39.5222 164.319 36.7701C162.718 33.9539 160.542 31.7458 157.79 30.1457C155.038 28.4816 151.902 27.6496 148.382 27.6496C144.925 27.6496 141.821 28.4816 139.069 30.1457C136.317 31.7458 134.109 33.9539 132.445 36.7701C130.781 39.5222 129.949 42.6264 129.949 46.0826C129.949 49.5388 130.781 52.675 132.445 55.4911C134.109 58.2433 136.317 60.4194 139.069 62.0195C141.821 63.6196 144.925 64.4197 148.382 64.4197Z" fill="black"/>
<path d="M117.208 23.0413V69.1239H110.2V57.8912L111.16 59.0433C109.496 62.5635 107.064 65.3797 103.864 67.4918C100.727 69.6039 97.2073 70.66 93.303 70.66C89.4628 70.66 86.0066 69.7319 82.9344 67.8758C79.8623 65.9557 77.4301 63.3955 75.638 60.1954C73.8459 56.9312 72.9499 53.315 72.9499 49.3468V23.0413H79.9583V49.3468C79.9583 52.1629 80.6303 54.7231 81.9744 57.0272C83.3185 59.3313 85.1426 61.1554 87.4467 62.4995C89.7508 63.8436 92.279 64.5156 95.0311 64.5156C97.9113 64.5156 100.471 63.8116 102.712 62.4035C105.016 60.9314 106.84 58.9793 108.184 56.5472C109.528 54.115 110.2 51.3949 110.2 48.3867V23.0413H117.208Z" fill="black"/>
<path d="M61.2747 69.1239C58.2666 69.1239 55.5144 68.3879 53.0183 66.9158C50.5861 65.3797 48.634 63.3316 47.1619 60.7714C45.7539 58.1473 45.0498 55.2671 45.0498 52.1309V6.81638H52.0582V52.1309C52.0582 54.0511 52.4742 55.8112 53.3063 57.4112C54.2023 59.0113 55.3864 60.2914 56.8585 61.2515C58.3306 62.1475 59.9627 62.5955 61.7548 62.5955H68.5712V69.1239H61.7548H61.2747ZM38.3294 28.4176V23.0413H67.0351V28.4176H38.3294Z" fill="black"/>
<path d="M19.7771 70.66C16.1289 70.66 12.8007 69.924 9.79255 68.4519C6.78438 66.9158 4.38425 64.8677 2.59215 62.3076C0.864049 59.7474 0 56.8993 0 53.7631H6.91239C6.91239 55.6832 7.48842 57.4753 8.64049 59.1394C9.85656 60.7395 11.4566 62.0195 13.4408 62.9796C15.4249 63.8757 17.665 64.3237 20.1611 64.3237C22.3373 64.3237 24.3214 63.9717 26.1135 63.2676C27.9056 62.4996 29.3137 61.4435 30.3377 60.0994C31.4258 58.7554 31.9698 57.2833 31.9698 55.6832C31.9698 54.0191 31.4578 52.739 30.4337 51.843C29.4097 50.9469 28.0336 50.2429 26.3055 49.7309C24.5774 49.1548 22.6893 48.6428 20.6412 48.1948C18.6571 47.7467 16.5769 47.2667 14.4008 46.7547C12.2887 46.2426 10.3366 45.5706 8.54448 44.7386C6.75238 43.9065 5.2803 42.7544 4.12823 41.2824C3.04017 39.8103 2.49614 37.8902 2.49614 35.522C2.49614 32.8979 3.20018 30.5298 4.60826 28.4176C6.08034 26.3055 8.03245 24.6414 10.4646 23.4254C12.8967 22.1453 15.5849 21.5052 18.529 21.5052C21.7932 21.5052 24.7374 22.1453 27.3616 23.4254C30.0497 24.6414 32.1618 26.3055 33.6979 28.4176C35.298 30.5298 36.098 32.8979 36.098 35.522H29.1857C29.1857 34.05 28.7056 32.7379 27.7456 31.5858C26.7855 30.4338 25.5054 29.5057 23.9054 28.8017C22.3053 28.0976 20.5132 27.7456 18.529 27.7456C16.801 27.7456 15.2009 28.0656 13.7288 28.7057C12.3207 29.3457 11.2006 30.1777 10.3686 31.2018C9.53654 32.2259 9.12052 33.3779 9.12052 34.658C9.12052 35.8741 9.47254 36.8661 10.1766 37.6342C10.9446 38.3382 11.9367 38.9142 13.1527 39.3623C14.4328 39.8103 15.8729 40.2263 17.473 40.6103C19.0731 40.9303 20.7372 41.2504 22.4653 41.5704C24.3854 42.0184 26.3055 42.5304 28.2256 43.1065C30.1457 43.6825 31.8738 44.4506 33.4099 45.4106C35.01 46.3707 36.2581 47.6507 37.1541 49.2508C38.1142 50.8509 38.5942 52.899 38.5942 55.3952C38.5942 58.2113 37.7621 60.8035 36.098 63.1716C34.434 65.4757 32.1618 67.2998 29.2817 68.6439C26.4655 69.988 23.2973 70.66 19.7771 70.66Z" fill="black"/>
</svg>
