<svg width="497" height="71" viewBox="0 0 497 71" fill="none" xmlns="http://www.w3.org/2000/svg">
<path d="M-6.67572e-06 69.12V0H11.904V33.216L9.69599 30.72C11.488 27.904 13.824 25.664 16.704 24C19.648 22.336 22.816 21.504 26.208 21.504C30.304 21.504 33.952 22.56 37.152 24.672C40.416 26.72 43.008 29.472 44.928 32.928C46.848 36.384 47.808 40.288 47.808 44.64V69.12H35.712V44.64C35.712 42.4 35.168 40.384 34.08 38.592C32.992 36.8 31.552 35.392 29.76 34.368C27.968 33.28 25.984 32.736 23.808 32.736C21.632 32.736 19.616 33.28 17.76 34.368C15.968 35.456 14.528 36.96 13.44 38.88C12.416 40.736 11.904 42.816 11.904 45.12V69.12H-6.67572e-06ZM78.1372 70.656C73.5292 70.656 69.3052 69.568 65.4652 67.392C61.6252 65.216 58.5852 62.272 56.3452 58.56C54.1692 54.784 53.0812 50.624 53.0812 46.08C53.0812 41.472 54.1692 37.312 56.3452 33.6C58.5852 29.888 61.6252 26.944 65.4652 24.768C69.3052 22.592 73.5292 21.504 78.1372 21.504C82.8092 21.504 87.0332 22.592 90.8092 24.768C94.6492 26.944 97.6572 29.888 99.8332 33.6C102.073 37.312 103.193 41.472 103.193 46.08C103.193 50.624 102.073 54.784 99.8332 58.56C97.6572 62.272 94.6492 65.216 90.8092 67.392C87.0332 69.568 82.8092 70.656 78.1372 70.656ZM78.1372 59.424C80.5692 59.424 82.7772 58.848 84.7612 57.696C86.7452 56.48 88.3132 54.88 89.4652 52.896C90.6812 50.848 91.2892 48.576 91.2892 46.08C91.2892 43.52 90.6812 41.248 89.4652 39.264C88.3132 37.28 86.7452 35.712 84.7612 34.56C82.7772 33.344 80.5692 32.736 78.1372 32.736C75.7052 32.736 73.4972 33.344 71.5132 34.56C69.5292 35.712 67.9292 37.312 66.7132 39.36C65.5612 41.344 64.9852 43.584 64.9852 46.08C64.9852 48.512 65.5612 50.752 66.7132 52.8C67.9292 54.848 69.5292 56.48 71.5132 57.696C73.4972 58.848 75.7052 59.424 78.1372 59.424ZM146.675 69.12V0H158.387V69.12H146.675ZM130.931 70.656C126.579 70.656 122.611 69.568 119.027 67.392C115.443 65.216 112.595 62.272 110.483 58.56C108.435 54.784 107.411 50.624 107.411 46.08C107.411 41.472 108.435 37.312 110.483 33.6C112.595 29.888 115.443 26.944 119.027 24.768C122.611 22.592 126.579 21.504 130.931 21.504C135.219 21.504 139.091 22.592 142.547 24.768C146.003 26.944 148.755 29.888 150.803 33.6C152.851 37.312 153.875 41.472 153.875 46.08C153.875 50.624 152.851 54.784 150.803 58.56C148.755 62.272 146.003 65.216 142.547 67.392C139.091 69.568 135.219 70.656 130.931 70.656ZM132.755 59.328C135.251 59.328 137.491 58.752 139.475 57.6C141.523 56.384 143.123 54.784 144.275 52.8C145.491 50.816 146.099 48.576 146.099 46.08C146.099 43.584 145.491 41.344 144.275 39.36C143.123 37.312 141.523 35.712 139.475 34.56C137.491 33.408 135.251 32.832 132.755 32.832C130.259 32.832 127.987 33.44 125.939 34.656C123.955 35.808 122.355 37.376 121.139 39.36C119.987 41.344 119.411 43.584 119.411 46.08C119.411 48.512 119.987 50.752 121.139 52.8C122.355 54.784 123.955 56.384 125.939 57.6C127.987 58.752 130.259 59.328 132.755 59.328ZM188.815 70.656C184.207 70.656 179.983 69.568 176.143 67.392C172.303 65.216 169.263 62.272 167.023 58.56C164.847 54.784 163.759 50.624 163.759 46.08C163.759 41.472 164.847 37.312 167.023 33.6C169.263 29.888 172.303 26.944 176.143 24.768C179.983 22.592 184.207 21.504 188.815 21.504C193.487 21.504 197.711 22.592 201.487 24.768C205.327 26.944 208.335 29.888 210.511 33.6C212.751 37.312 213.871 41.472 213.871 46.08C213.871 50.624 212.751 54.784 210.511 58.56C208.335 62.272 205.327 65.216 201.487 67.392C197.711 69.568 193.487 70.656 188.815 70.656ZM188.815 59.424C191.247 59.424 193.455 58.848 195.439 57.696C197.423 56.48 198.991 54.88 200.143 52.896C201.359 50.848 201.967 48.576 201.967 46.08C201.967 43.52 201.359 41.248 200.143 39.264C198.991 37.28 197.423 35.712 195.439 34.56C193.455 33.344 191.247 32.736 188.815 32.736C186.383 32.736 184.175 33.344 182.191 34.56C180.207 35.712 178.607 37.312 177.391 39.36C176.239 41.344 175.663 43.584 175.663 46.08C175.663 48.512 176.239 50.752 177.391 52.8C178.607 54.848 180.207 56.48 182.191 57.696C184.175 58.848 186.383 59.424 188.815 59.424ZM272.397 70.656C268.749 70.656 265.421 69.92 262.413 68.448C259.405 66.912 257.005 64.864 255.213 62.304C253.485 59.744 252.621 56.896 252.621 53.76H259.533C259.533 55.68 260.109 57.472 261.261 59.136C262.477 60.736 264.077 62.016 266.061 62.976C268.045 63.872 270.285 64.32 272.781 64.32C274.957 64.32 276.941 63.968 278.733 63.264C280.525 62.496 281.933 61.44 282.957 60.096C284.045 58.752 284.589 57.28 284.589 55.68C284.589 54.016 284.077 52.736 283.053 51.84C282.029 50.944 280.653 50.24 278.925 49.728C277.197 49.152 275.309 48.64 273.261 48.192C271.277 47.744 269.197 47.264 267.021 46.752C264.909 46.24 262.957 45.568 261.165 44.736C259.373 43.904 257.901 42.752 256.749 41.28C255.661 39.808 255.117 37.888 255.117 35.52C255.117 32.896 255.821 30.528 257.229 28.416C258.701 26.304 260.653 24.64 263.085 23.424C265.517 22.144 268.205 21.504 271.149 21.504C274.413 21.504 277.357 22.144 279.981 23.424C282.669 24.64 284.781 26.304 286.317 28.416C287.917 30.528 288.717 32.896 288.717 35.52H281.805C281.805 34.048 281.325 32.736 280.365 31.584C279.405 30.432 278.125 29.504 276.525 28.8C274.925 28.096 273.133 27.744 271.149 27.744C269.421 27.744 267.821 28.064 266.349 28.704C264.941 29.344 263.821 30.176 262.989 31.2C262.157 32.224 261.741 33.376 261.741 34.656C261.741 35.872 262.125 36.864 262.893 37.632C263.661 38.336 264.653 38.912 265.869 39.36C267.085 39.808 268.493 40.224 270.093 40.608C271.693 40.928 273.357 41.248 275.085 41.568C277.005 42.016 278.925 42.528 280.845 43.104C282.765 43.68 284.493 44.448 286.029 45.408C287.629 46.368 288.877 47.648 289.773 49.248C290.733 50.848 291.213 52.896 291.213 55.392C291.213 58.208 290.381 60.8 288.717 63.168C287.053 65.472 284.781 67.296 281.901 68.64C279.085 69.984 275.917 70.656 272.397 70.656ZM313.892 69.12C310.884 69.12 308.132 68.384 305.636 66.912C303.204 65.376 301.252 63.328 299.78 60.768C298.372 58.144 297.668 55.264 297.668 52.128V6.816H304.676V52.128C304.676 54.048 305.092 55.808 305.924 57.408C306.82 59.008 308.004 60.288 309.476 61.248C310.948 62.144 312.58 62.592 314.372 62.592H321.188V69.12H314.372H313.892ZM290.948 28.416V23.04H319.652V28.416H290.948ZM369.823 23.04V69.12H362.815V57.888L363.775 59.04C362.111 62.56 359.679 65.376 356.479 67.488C353.343 69.6 349.823 70.656 345.919 70.656C342.079 70.656 338.623 69.728 335.551 67.872C332.479 65.952 330.047 63.392 328.255 60.192C326.463 56.928 325.567 53.312 325.567 49.344V23.04H332.575V49.344C332.575 52.16 333.247 54.72 334.591 57.024C335.935 59.328 337.759 61.152 340.063 62.496C342.367 63.84 344.895 64.512 347.647 64.512C350.527 64.512 353.087 63.808 355.327 62.4C357.631 60.928 359.455 58.976 360.799 56.544C362.143 54.112 362.815 51.392 362.815 48.384V23.04H369.823ZM419.522 69.12V0H426.05V69.12H419.522ZM400.322 70.656C395.778 70.656 391.65 69.568 387.938 67.392C384.226 65.216 381.282 62.272 379.106 58.56C376.93 54.784 375.842 50.624 375.842 46.08C375.842 41.472 376.93 37.312 379.106 33.6C381.282 29.888 384.226 26.944 387.938 24.768C391.65 22.592 395.778 21.504 400.322 21.504C404.674 21.504 408.61 22.592 412.13 24.768C415.65 26.944 418.466 29.888 420.578 33.6C422.69 37.312 423.746 41.472 423.746 46.08C423.746 50.624 422.69 54.784 420.578 58.56C418.466 62.272 415.65 65.216 412.13 67.392C408.61 69.568 404.674 70.656 400.322 70.656ZM400.994 64.416C404.514 64.416 407.65 63.616 410.402 62.016C413.154 60.416 415.33 58.24 416.93 55.488C418.594 52.672 419.426 49.536 419.426 46.08C419.426 42.624 418.594 39.52 416.93 36.768C415.33 33.952 413.154 31.744 410.402 30.144C407.65 28.48 404.514 27.648 400.994 27.648C397.538 27.648 394.434 28.48 391.682 30.144C388.93 31.744 386.722 33.952 385.058 36.768C383.394 39.52 382.562 42.624 382.562 46.08C382.562 49.536 383.394 52.672 385.058 55.488C386.722 58.24 388.93 60.416 391.682 62.016C394.434 63.616 397.538 64.416 400.994 64.416ZM434.987 69.12V23.04H441.515V69.12H434.987ZM438.251 14.112C436.907 14.112 435.755 13.632 434.795 12.672C433.835 11.648 433.355 10.496 433.355 9.216C433.355 7.808 433.835 6.624 434.795 5.664C435.755 4.704 436.907 4.224 438.251 4.224C439.659 4.224 440.811 4.704 441.707 5.664C442.667 6.624 443.147 7.808 443.147 9.216C443.147 10.496 442.667 11.648 441.707 12.672C440.811 13.632 439.659 14.112 438.251 14.112ZM471.957 70.656C467.413 70.656 463.253 69.568 459.477 67.392C455.765 65.216 452.821 62.272 450.645 58.56C448.469 54.784 447.381 50.624 447.381 46.08C447.381 41.472 448.469 37.312 450.645 33.6C452.821 29.888 455.765 26.944 459.477 24.768C463.253 22.592 467.413 21.504 471.957 21.504C476.565 21.504 480.725 22.592 484.437 24.768C488.149 26.944 491.093 29.888 493.269 33.6C495.445 37.312 496.533 41.472 496.533 46.08C496.533 50.624 495.445 54.784 493.269 58.56C491.093 62.272 488.149 65.216 484.437 67.392C480.725 69.568 476.565 70.656 471.957 70.656ZM471.957 64.608C475.285 64.608 478.293 63.776 480.981 62.112C483.733 60.448 485.909 58.24 487.509 55.488C489.109 52.672 489.909 49.536 489.909 46.08C489.909 42.56 489.109 39.424 487.509 36.672C485.909 33.856 483.733 31.648 480.981 30.048C478.293 28.384 475.285 27.552 471.957 27.552C468.629 27.552 465.589 28.384 462.837 30.048C460.149 31.712 457.973 33.952 456.309 36.768C454.709 39.52 453.909 42.624 453.909 46.08C453.909 49.536 454.709 52.672 456.309 55.488C457.973 58.24 460.149 60.448 462.837 62.112C465.589 63.776 468.629 64.608 471.957 64.608Z" fill="black"/>
</svg>
